<svg width="30" height="30" viewBox="0 0 30 30" fill="none" xmlns="http://www.w3.org/2000/svg">
<path d="M24.6188 3.88593C25.1578 4.12499 25.5 4.65937 25.5 5.24999V24.75C25.5 25.3406 25.1578 25.875 24.6188 26.1141C24.0797 26.3531 23.4562 26.2641 23.0109 25.875L20.8266 23.9672C18.7828 22.1812 16.2 21.1406 13.4953 21.0141V25.5C13.4953 26.3297 12.825 27 11.9953 27H10.4953C9.66562 27 8.99531 26.3297 8.99531 25.5V21C5.68594 21 3 18.3141 3 15C3 11.6859 5.68594 8.99999 9 8.99999H12.9609C15.8578 8.99062 18.6516 7.93593 20.8312 6.0328L23.0156 4.12499C23.4562 3.73593 24.0891 3.64687 24.6234 3.88593H24.6188ZM13.5 18V18.0094C16.7953 18.1359 19.9594 19.3453 22.5 21.45V8.5453C19.9594 10.65 16.7953 11.8594 13.5 11.9859V18Z" fill="#600007"/>
</svg>
