<svg width="30" height="30" viewBox="0 0 30 30" fill="none" xmlns="http://www.w3.org/2000/svg">
<path d="M19.5 3C20.3297 3 21 3.67031 21 4.5V6H22.5C24.1547 6 25.5 7.34531 25.5 9V22.5C25.5 24.1547 24.1547 25.5 22.5 25.5H7.5C5.84531 25.5 4.5 24.1547 4.5 22.5V9C4.5 7.34531 5.84531 6 7.5 6H9V4.5C9 3.67031 9.67031 3 10.5 3C11.3297 3 12 3.67031 12 4.5V6H18V4.5C18 3.67031 18.6703 3 19.5 3ZM20.5312 10.5797C20.0297 10.2141 19.3266 10.3266 18.9609 10.8281L13.3641 18.525L10.9219 16.0828C10.4812 15.6422 9.76875 15.6422 9.33281 16.0828C8.89688 16.5234 8.89219 17.2359 9.33281 17.6719L12.7078 21.0469C12.9422 21.2812 13.2656 21.3984 13.5891 21.375C13.9125 21.3516 14.2172 21.1828 14.4094 20.9156L20.7797 12.15C21.1453 11.6484 21.0328 10.9453 20.5312 10.5797Z" fill="#600007"/>
</svg>
