<svg width="27" height="28" viewBox="0 0 27 28" fill="none" xmlns="http://www.w3.org/2000/svg">
<path d="M25.2219 0.154027C25.8508 0.432933 26.25 1.05637 26.25 1.74543V24.4954C26.25 25.1845 25.8508 25.8079 25.2219 26.0868C24.593 26.3657 23.8656 26.2618 23.3461 25.8079L20.7977 23.5822C18.4133 21.4986 15.4 20.2845 12.2445 20.1368V25.3704C12.2445 26.3384 11.4625 27.1204 10.4945 27.1204H8.74453C7.77656 27.1204 6.99453 26.3384 6.99453 25.3704V20.1204C3.13359 20.1204 0 16.9868 0 13.1204C0 9.25403 3.13359 6.12043 7 6.12043H11.6211C15.0008 6.1095 18.2602 4.87903 20.8031 2.65871L23.3516 0.432933C23.8656 -0.0209732 24.6039 -0.124879 25.2273 0.154027H25.2219ZM12.25 16.6204V16.6314C16.0945 16.779 19.7859 18.19 22.75 20.6454V5.58996C19.7859 8.04543 16.0945 9.45637 12.25 9.60403V16.6204Z" fill="#FF3947"/>
</svg>
