<svg width="20" height="20" viewBox="0 0 20 20" fill="none" xmlns="http://www.w3.org/2000/svg">
<path d="M2.36614 9.09227C1.87795 9.59433 1.87795 10.4097 2.36614 10.9117L9.86467 18.6235C10.3529 19.1255 11.1457 19.1255 11.6339 18.6235C12.122 18.1214 12.122 17.306 11.6339 16.804L5.01796 10L11.63 3.19603C12.1181 2.69396 12.1181 1.87861 11.63 1.37655C11.1418 0.874484 10.349 0.874484 9.86077 1.37655L2.36223 9.08825L2.36614 9.09227Z" fill="#AAAAAA"/>
<path d="M8.36614 9.09227C7.87795 9.59433 7.87795 10.4097 8.36614 10.9117L15.8647 18.6235C16.3529 19.1255 17.1457 19.1255 17.6339 18.6235C18.122 18.1214 18.122 17.306 17.6339 16.804L11.018 10L17.63 3.19603C18.1181 2.69396 18.1181 1.87861 17.63 1.37655C17.1418 0.874484 16.349 0.874484 15.8608 1.37655L8.36223 9.08825L8.36614 9.09227Z" fill="#AAAAAA"/>
</svg>
