<svg width="35" height="35" viewBox="0 0 35 35" fill="none" xmlns="http://www.w3.org/2000/svg">
<path d="M5.25 8.75C5.25 7.78203 6.03203 7 7 7H28C28.968 7 29.75 7.78203 29.75 8.75C29.75 9.71797 28.968 10.5 28 10.5H7C6.03203 10.5 5.25 9.71797 5.25 8.75ZM5.25 17.5C5.25 16.532 6.03203 15.75 7 15.75H28C28.968 15.75 29.75 16.532 29.75 17.5C29.75 18.468 28.968 19.25 28 19.25H7C6.03203 19.25 5.25 18.468 5.25 17.5ZM29.75 26.25C29.75 27.218 28.968 28 28 28H7C6.03203 28 5.25 27.218 5.25 26.25C5.25 25.282 6.03203 24.5 7 24.5H28C28.968 24.5 29.75 25.282 29.75 26.25Z" fill="#600007"/>
</svg>
