<svg width="21" height="30" viewBox="0 0 21 30" fill="none" xmlns="http://www.w3.org/2000/svg">
<path d="M10.5 29.7C4.70312 29.7 0 24.8625 0 18.9C0 13.77 7.12031 3.48188 9.11094 0.703125C9.43359 0.253125 9.94219 0 10.4891 0H10.5109C11.0578 0 11.5664 0.253125 11.8891 0.703125C13.8797 3.48188 21 13.77 21 18.9C21 24.8625 16.2969 29.7 10.5 29.7ZM6.125 18.45C6.125 17.7019 5.53984 17.1 4.8125 17.1C4.08516 17.1 3.5 17.7019 3.5 18.45C3.5 22.6744 6.83047 26.1 10.9375 26.1C11.6648 26.1 12.25 25.4981 12.25 24.75C12.25 24.0019 11.6648 23.4 10.9375 23.4C8.27969 23.4 6.125 21.1838 6.125 18.45Z" fill="#FF3947"/>
</svg>
