<svg width="20" height="20" viewBox="0 0 20 20" fill="none" xmlns="http://www.w3.org/2000/svg">
<path d="M9.5 17C13.6426 17 17 13.6426 17 9.5C17 5.35742 13.6426 2 9.5 2C5.35742 2 2 5.35742 2 9.5C2 13.6426 5.35742 17 9.5 17ZM6.89258 6.89258C7.16797 6.61719 7.61328 6.61719 7.88574 6.89258L9.49707 8.50391L11.1084 6.89258C11.3838 6.61719 11.8291 6.61719 12.1016 6.89258C12.374 7.16797 12.377 7.61328 12.1016 7.88574L10.4902 9.49707L12.1016 11.1084C12.377 11.3838 12.377 11.8291 12.1016 12.1016C11.8262 12.374 11.3809 12.377 11.1084 12.1016L9.49707 10.4902L7.88574 12.1016C7.61035 12.377 7.16504 12.377 6.89258 12.1016C6.62012 11.8262 6.61719 11.3809 6.89258 11.1084L8.50391 9.49707L6.89258 7.88574C6.61719 7.61035 6.61719 7.16504 6.89258 6.89258Z" fill="#FF161A"/>
</svg>
