<svg width="20" height="20" viewBox="0 0 20 20" fill="none" xmlns="http://www.w3.org/2000/svg">
<path d="M9.5 17C5.35742 17 2 13.6426 2 9.5C2 5.35742 5.35742 2 9.5 2C13.6426 2 17 5.35742 17 9.5C17 13.6426 13.6426 17 9.5 17ZM12.957 6.26855C12.6436 6.04004 12.2041 6.11035 11.9756 6.42383L8.47754 11.2344L6.95117 9.70801C6.67578 9.43262 6.23047 9.43262 5.95801 9.70801C5.68555 9.9834 5.68262 10.4287 5.95801 10.7012L8.06738 12.8105C8.21387 12.957 8.41309 13.0303 8.61816 13.0156C8.82324 13.001 9.01074 12.8955 9.13086 12.7285L13.1123 7.25C13.3408 6.93652 13.2705 6.49707 12.957 6.26855Z" fill="#00BD13"/>
</svg>
