<svg width="35" height="35" viewBox="0 0 35 35" fill="none" xmlns="http://www.w3.org/2000/svg">
<path d="M6.5 6.78571C6.5 5.79799 5.71797 5 4.75 5C3.78203 5 3 5.79799 3 6.78571V25.5357C3 28.0022 4.95781 30 7.375 30H29.25C30.218 30 31 29.202 31 28.2143C31 27.2266 30.218 26.4286 29.25 26.4286H7.375C6.89375 26.4286 6.5 26.0268 6.5 25.5357V6.78571ZM28.7359 11.6183C29.4195 10.9208 29.4195 9.78795 28.7359 9.0904C28.0523 8.39286 26.9422 8.39286 26.2586 9.0904L20.5 14.9721L17.3609 11.7746C16.6773 11.077 15.5672 11.077 14.8836 11.7746L9.63359 17.1317C8.95 17.8292 8.95 18.9621 9.63359 19.6596C10.3172 20.3571 11.4273 20.3571 12.1109 19.6596L16.125 15.5636L19.2641 18.7667C19.9477 19.4643 21.0578 19.4643 21.7414 18.7667L28.7414 11.6239L28.7359 11.6183Z" fill="#FF3443"/>
</svg>
