<svg width="36" height="36" viewBox="0 0 36 36" fill="none" xmlns="http://www.w3.org/2000/svg">
<path d="M17.3947 17.8223L14.1723 22.5293C13.628 23.3252 13.3364 24.2676 13.3364 25.2295L13.3364 25.3125C13.3364 27.9004 15.4263 30 18.0023 30C20.5782 30 22.6682 27.9004 22.6682 25.3125L22.6682 25.2295C22.6682 24.2627 22.3766 23.3252 21.8322 22.5293L18.6098 17.8223C18.4737 17.6221 18.2453 17.5 18.0023 17.5C17.7593 17.5 17.5308 17.6221 17.3947 17.8223ZM26.6877 13.3252L28.7582 11.25L30.4447 11.25C31.305 11.25 32 10.5518 32 9.6875L32 6.5625C32 5.69824 31.305 5 30.4447 5L14.8674 5C13.4579 5 12.0824 5.4541 10.9451 6.29395L4.79192 10.8496C3.92679 11.4893 3.7421 12.71 4.3788 13.5791C5.0155 14.4482 6.23058 14.6338 7.09571 13.9941L12.9184 9.6875L18.3911 9.6875C19.0375 9.6875 19.5576 10.21 19.5576 10.8594C19.5576 11.5088 19.0375 12.0313 18.3911 12.0313L14.8917 12.0313C14.0314 12.0313 13.3364 12.7295 13.3364 13.5938C13.3364 14.458 14.0314 15.1562 14.8917 15.1562L22.2891 15.1563C23.9367 15.1563 25.5212 14.4971 26.6877 13.3252Z" fill="#FF3443"/>
</svg>
