<svg width="36" height="36" viewBox="0 0 36 36" fill="none" xmlns="http://www.w3.org/2000/svg">
<path d="M30.0591 4.90759C28.849 3.69747 26.8929 3.69747 25.6828 4.90759L24.3345 6.25586L29.7441 11.6655L31.0924 10.3172C32.3025 9.10711 32.3025 7.15102 31.0924 5.9409L30.0591 4.90759ZM13.5263 17.0641C13.1892 17.4012 12.9295 17.8156 12.7803 18.2742L11.1447 23.181C10.9845 23.6562 11.1116 24.1812 11.4652 24.5403C11.8188 24.8995 12.3438 25.0211 12.8245 24.8608L17.7313 23.2252C18.1844 23.076 18.5988 22.8163 18.9414 22.4793L27.8709 13.5387L22.4613 8.12906L13.5263 17.0641ZM9.30465 7.24496C6.37604 7.24496 4 9.621 4 12.5496V26.6953C4 29.624 6.37604 32 9.30465 32H23.4504C26.379 32 28.755 29.624 28.755 26.6953V21.3907C28.755 20.4126 27.9649 19.6225 26.9868 19.6225C26.0088 19.6225 25.2186 20.4126 25.2186 21.3907V26.6953C25.2186 27.6734 24.4284 28.4636 23.4504 28.4636H9.30465C8.32661 28.4636 7.53644 27.6734 7.53644 26.6953V12.5496C7.53644 11.5716 8.32661 10.7814 9.30465 10.7814H14.6093C15.5874 10.7814 16.3775 9.99122 16.3775 9.01317C16.3775 8.03513 15.5874 7.24496 14.6093 7.24496H9.30465Z" fill="#FF3443"/>
</svg>
