<svg width="20" height="20" viewBox="0 0 20 20" fill="none" xmlns="http://www.w3.org/2000/svg">
<path d="M17.6339 9.09227C18.122 9.59433 18.122 10.4097 17.6339 10.9117L10.1353 18.6235C9.64714 19.1255 8.85433 19.1255 8.36614 18.6235C7.87795 18.1214 7.87795 17.306 8.36614 16.804L14.982 10L8.37004 3.19603C7.88186 2.69396 7.88186 1.87861 8.37004 1.37655C8.85823 0.874484 9.65105 0.874484 10.1392 1.37655L17.6378 9.08825L17.6339 9.09227Z" fill="white"/>
<path d="M11.6339 9.09227C12.122 9.59433 12.122 10.4097 11.6339 10.9117L4.13533 18.6235C3.64714 19.1255 2.85433 19.1255 2.36614 18.6235C1.87795 18.1214 1.87795 17.306 2.36614 16.804L8.98204 10L2.37004 3.19603C1.88186 2.69396 1.88186 1.87861 2.37004 1.37655C2.85823 0.874484 3.65105 0.874484 4.13923 1.37655L11.6378 9.08825L11.6339 9.09227Z" fill="white"/>
</svg>
