<svg width="30" height="30" viewBox="0 0 30 30" fill="none" xmlns="http://www.w3.org/2000/svg">
<path d="M16.0218 3.40273C15.4453 2.86836 14.5546 2.86836 13.9828 3.40273L3.48277 13.1527C3.03277 13.5746 2.88277 14.2262 3.10777 14.798C3.33277 15.3699 3.8812 15.7496 4.49995 15.7496H5.24995V23.9996C5.24995 25.6543 6.59527 26.9996 8.24995 26.9996H21.75C23.4046 26.9996 24.75 25.6543 24.75 23.9996V15.7496H25.5C26.1187 15.7496 26.6718 15.3699 26.8968 14.798C27.1218 14.2262 26.9718 13.5699 26.5218 13.1527L16.0218 3.40273ZM14.25 17.9996H15.75C16.9921 17.9996 18 19.0074 18 20.2496V24.7496H12V20.2496C12 19.0074 13.0078 17.9996 14.25 17.9996Z" fill="#600007"/>
</svg>
