<svg width="36" height="36" viewBox="0 0 36 36" fill="none" xmlns="http://www.w3.org/2000/svg">
<path d="M23.25 9.57143H26.75C27.718 9.57143 28.5 10.3694 28.5 11.3571V25.6429C28.5 26.6306 27.718 27.4286 26.75 27.4286H23.25C22.282 27.4286 21.5 28.2266 21.5 29.2143C21.5 30.202 22.282 31 23.25 31H26.75C29.6484 31 32 28.6004 32 25.6429V11.3571C32 8.39955 29.6484 6 26.75 6H23.25C22.282 6 21.5 6.79799 21.5 7.78571C21.5 8.77344 22.282 9.57143 23.25 9.57143ZM22.7359 19.7612C23.4195 19.0636 23.4195 17.9308 22.7359 17.2333L15.7359 10.0904C15.0523 9.39286 13.9422 9.39286 13.2586 10.0904C12.575 10.7879 12.575 11.9208 13.2586 12.6183L17.2727 16.7143H5.75C4.78203 16.7143 4 17.5123 4 18.5C4 19.4877 4.78203 20.2857 5.75 20.2857H17.2727L13.2586 24.3817C12.575 25.0792 12.575 26.2121 13.2586 26.9096C13.9422 27.6071 15.0523 27.6071 15.7359 26.9096L22.7359 19.7667V19.7612Z" fill="#FF3443"/>
</svg>
