<svg width="30" height="30" viewBox="0 0 30 30" fill="none" xmlns="http://www.w3.org/2000/svg">
<path d="M20.9375 6.57143H24.5625C25.565 6.57143 26.375 7.36942 26.375 8.35714V22.6429C26.375 23.6306 25.565 24.4286 24.5625 24.4286H20.9375C19.935 24.4286 19.125 25.2266 19.125 26.2143C19.125 27.202 19.935 28 20.9375 28H24.5625C27.5645 28 30 25.6004 30 22.6429V8.35714C30 5.39955 27.5645 3 24.5625 3H20.9375C19.935 3 19.125 3.79799 19.125 4.78571C19.125 5.77344 19.935 6.57143 20.9375 6.57143ZM20.4051 16.7612C21.1131 16.0636 21.1131 14.9308 20.4051 14.2333L13.1551 7.0904C12.4471 6.39286 11.2973 6.39286 10.5893 7.0904C9.88125 7.78795 9.88125 8.92076 10.5893 9.6183L14.7467 13.7143H2.8125C1.80996 13.7143 1 14.5123 1 15.5C1 16.4877 1.80996 17.2857 2.8125 17.2857H14.7467L10.5893 21.3817C9.88125 22.0792 9.88125 23.2121 10.5893 23.9096C11.2973 24.6071 12.4471 24.6071 13.1551 23.9096L20.4051 16.7667V16.7612Z" fill="#600007"/>
</svg>
