<svg width="120" height="30" viewBox="0 0 120 30" fill="none" xmlns="http://www.w3.org/2000/svg">
<path d="M8.40964 17.1878C7.14307 17.1878 6.11548 16.1502 6.11548 14.8713C6.11548 13.771 7.67121 11.5642 8.10615 10.9682C8.17664 10.8717 8.28776 10.8174 8.40725 10.8174H8.41204C8.53153 10.8174 8.64265 10.8717 8.71314 10.9682C9.14808 11.5642 10.7038 13.771 10.7038 14.8713C10.7038 16.1502 9.67617 17.1878 8.40964 17.1878ZM7.45374 14.7748C7.45374 14.6144 7.32589 14.4851 7.16697 14.4851C7.00805 14.4851 6.8802 14.6144 6.8802 14.7748C6.8802 15.6808 7.60788 16.4156 8.50523 16.4156C8.66415 16.4156 8.79201 16.2865 8.79201 16.1261C8.79201 15.9655 8.66415 15.8364 8.50523 15.8364C7.92452 15.8364 7.45374 15.3612 7.45374 14.7748Z" fill="white"/>
<path d="M16.6733 6.20069L17.1774 4.31172L18.1521 3.74741C18.6494 3.45957 18.8191 2.82399 18.5318 2.32513L17.4933 0.52138C17.2061 0.0225331 16.5723 -0.147937 16.075 0.139898L7.07476 5.3504C6.26012 5.82202 5.61606 6.54435 5.23786 7.40966L3.19559 12.0981C2.90815 12.7567 3.2071 13.523 3.86395 13.8118C4.52078 14.1004 5.28472 13.8008 5.57215 13.1422L7.50334 8.70979L10.6664 6.87864C11.0399 6.66235 11.5143 6.7899 11.73 7.16475C11.9458 7.53959 11.8189 8.01517 11.4453 8.23146L9.42275 9.40235C8.92555 9.6902 8.7559 10.3258 9.04313 10.8246C9.33036 11.3236 9.96406 11.494 10.4613 11.2062L14.7368 8.73095C15.689 8.17966 16.3858 7.26903 16.6705 6.20232L16.6733 6.20069ZM2.00111 23.1311L1.49411 25.0216L0.519357 25.586C0.0221606 25.8738 -0.147489 26.5094 0.139748 27.0082L1.1783 28.812C1.46553 29.3108 2.09929 29.4813 2.5965 29.1934L11.5995 23.9814C12.4143 23.5097 13.0583 22.7874 13.4365 21.9221L15.4787 17.2338C15.7662 16.575 15.4673 15.8087 14.8104 15.5201C14.1535 15.2313 13.3896 15.5309 13.1022 16.1895L11.1681 20.6236L8.00517 22.4548C7.63156 22.671 7.15736 22.5434 6.94152 22.1686C6.7257 21.7938 6.85264 21.3182 7.22624 21.102L9.24878 19.931C9.74595 19.6432 9.91564 19.0076 9.62841 18.5088C9.34117 18.0098 8.70743 17.8394 8.21021 18.1272L3.93479 20.6024C2.98252 21.1537 2.28583 22.0644 2.00111 23.1311Z" fill="white"/>
<path d="M114.807 22.0648C114.038 22.0509 113.355 21.9017 112.759 21.6171C112.17 21.3256 111.681 20.9334 111.293 20.4406C110.905 19.9408 110.624 19.3682 110.451 18.7226C110.277 18.0702 110.218 17.376 110.274 16.6403L110.315 16.2134C110.392 15.4568 110.575 14.728 110.866 14.0269C111.158 13.3189 111.546 12.6907 112.031 12.1424C112.523 11.5871 113.102 11.1498 113.767 10.8305C114.433 10.5112 115.174 10.3619 115.992 10.3828C116.775 10.3967 117.437 10.5598 117.978 10.8721C118.519 11.1845 118.948 11.601 119.267 12.1215C119.586 12.6352 119.797 13.2183 119.901 13.8707C120.012 14.5232 120.03 15.2 119.953 15.901L119.808 16.9734H111.366L111.657 15.1722L117.614 15.1826L117.656 14.964C117.718 14.5267 117.694 14.1137 117.583 13.725C117.479 13.3363 117.285 13.017 117.001 12.7671C116.716 12.5172 116.335 12.3853 115.857 12.3714C115.337 12.3575 114.89 12.4651 114.516 12.6942C114.148 12.9233 113.843 13.2321 113.601 13.6208C113.358 14.0096 113.168 14.433 113.029 14.8911C112.897 15.3423 112.804 15.783 112.748 16.2134L112.707 16.6299C112.665 17.0394 112.676 17.4454 112.738 17.848C112.8 18.2506 112.922 18.6185 113.102 18.9517C113.282 19.2779 113.532 19.5452 113.85 19.7534C114.169 19.9547 114.564 20.0623 115.036 20.0762C115.625 20.09 116.158 19.9686 116.637 19.7118C117.122 19.448 117.562 19.1079 117.957 18.6914L119.163 19.972C118.844 20.451 118.449 20.8466 117.978 21.159C117.514 21.4713 117.008 21.7039 116.46 21.8566C115.919 22.0024 115.368 22.0718 114.807 22.0648Z" fill="white"/>
<path d="M103.882 21.8569H101.428L103.528 9.5085C103.625 8.7172 103.861 8.03002 104.235 7.44696C104.61 6.85696 105.102 6.40231 105.712 6.08301C106.322 5.76372 107.035 5.60754 107.853 5.61448C108.103 5.62142 108.352 5.64224 108.602 5.67695C108.851 5.71166 109.098 5.75677 109.34 5.8123L109.101 7.76972C108.949 7.73502 108.793 7.70725 108.633 7.68643C108.481 7.66561 108.325 7.65172 108.165 7.64478C107.77 7.64478 107.42 7.72114 107.115 7.87384C106.817 8.02655 106.571 8.24173 106.377 8.51937C106.19 8.79008 106.065 9.11979 106.003 9.5085L103.882 21.8569ZM108.082 10.5913L107.749 12.4238H101.386L101.719 10.5913H108.082Z" fill="white"/>
<path d="M97.7497 10.5914L95.7951 21.857H93.3518L95.3064 10.5914H97.7497ZM95.6495 7.67608C95.6426 7.27349 95.7743 6.94378 96.0446 6.68695C96.3149 6.43013 96.6476 6.29825 97.0427 6.2913C97.4239 6.28436 97.7497 6.40236 98.02 6.64531C98.2973 6.88131 98.4359 7.19713 98.4359 7.59278C98.4428 7.99537 98.3077 8.32161 98.0304 8.57149C97.7601 8.82137 97.4309 8.94979 97.0427 8.95673C96.6615 8.96367 96.3357 8.85261 96.0654 8.62355C95.7951 8.38755 95.6565 8.07172 95.6495 7.67608Z" fill="white"/>
<path d="M91.1809 5.86426L88.4049 21.8568H85.9617L88.7273 5.86426H91.1809Z" fill="white"/>
<path d="M79.1017 19.3788L81.441 5.86426H83.9051L81.1291 21.8568H78.925L79.1017 19.3788ZM72.5309 16.4322L72.5517 16.2136C72.6418 15.5195 72.8047 14.8254 73.0403 14.1312C73.2829 13.4371 73.6087 12.802 74.0176 12.2259C74.4335 11.6498 74.9395 11.1916 75.5356 10.8515C76.1386 10.5114 76.8456 10.3517 77.6566 10.3726C78.3636 10.3934 78.9527 10.5773 79.424 10.9244C79.8954 11.2715 80.2627 11.7192 80.5261 12.2675C80.7964 12.8159 80.9801 13.4094 81.0771 14.0479C81.1742 14.6796 81.2054 15.2974 81.1707 15.9012L81.0875 16.6092C80.9766 17.2478 80.7895 17.8934 80.5261 18.5458C80.2627 19.1983 79.9196 19.7953 79.4968 20.3367C79.0809 20.8781 78.5819 21.3084 77.9997 21.6277C77.4244 21.947 76.7659 22.0963 76.0242 22.0755C75.2826 22.0477 74.6692 21.8603 74.184 21.5132C73.6988 21.1592 73.3245 20.7046 73.0611 20.1493C72.7977 19.587 72.6279 18.9831 72.5517 18.3376C72.4754 17.6851 72.4685 17.05 72.5309 16.4322ZM75.0261 16.1928L75.0053 16.4114C74.9638 16.7724 74.9464 17.1576 74.9534 17.5671C74.9603 17.9767 75.0157 18.3688 75.1197 18.7437C75.2306 19.1116 75.4143 19.417 75.6707 19.6599C75.9341 19.9029 76.3015 20.0347 76.7728 20.0556C77.3204 20.0764 77.8056 19.9514 78.2284 19.6807C78.6581 19.41 79.0151 19.056 79.2993 18.6187C79.5835 18.1814 79.7845 17.7164 79.9023 17.2235L80.1934 15.3182C80.2142 14.9711 80.1899 14.6275 80.1206 14.2874C80.0583 13.9473 79.9439 13.6384 79.7775 13.3608C79.6112 13.0831 79.3894 12.8575 79.1121 12.684C78.8418 12.5035 78.5126 12.4098 78.1244 12.4029C77.6115 12.3821 77.1679 12.4862 76.7936 12.7152C76.4263 12.9443 76.1213 13.2497 75.8787 13.6315C75.643 14.0132 75.4559 14.4297 75.3173 14.8809C75.1786 15.3321 75.0816 15.7694 75.0261 16.1928Z" fill="white"/>
<path d="M58.6738 16.4113L58.705 16.1718C58.7882 15.3944 58.9788 14.6552 59.2768 13.9541C59.5749 13.253 59.97 12.6318 60.4621 12.0904C60.9611 11.542 61.5468 11.1152 62.2192 10.8097C62.8984 10.5043 63.654 10.362 64.4857 10.3829C65.2897 10.3967 65.9794 10.5633 66.5547 10.8826C67.1369 11.2019 67.6082 11.6288 67.9687 12.1633C68.336 12.6908 68.5925 13.2947 68.738 13.9749C68.8836 14.6482 68.9217 15.3528 68.8524 16.0885L68.8316 16.328C68.7415 17.1054 68.544 17.8412 68.239 18.5353C67.9409 19.2294 67.5424 19.8472 67.0433 20.3886C66.5512 20.9231 65.9655 21.343 65.2863 21.6484C64.6139 21.9469 63.8654 22.0857 63.0405 22.0649C62.2434 22.051 61.5538 21.8879 60.9715 21.5755C60.3962 21.2563 59.9249 20.8328 59.5576 20.3053C59.1971 19.7778 58.9441 19.1808 58.7986 18.5145C58.653 17.8412 58.6114 17.1401 58.6738 16.4113ZM61.1379 16.1718L61.1171 16.4113C61.0824 16.7931 61.079 17.1956 61.1067 17.6191C61.1344 18.0425 61.2176 18.4381 61.3562 18.806C61.4949 19.1739 61.7097 19.4758 62.0008 19.7118C62.292 19.9478 62.6801 20.0728 63.1653 20.0867C63.6782 20.1005 64.1253 19.9964 64.5065 19.7743C64.8877 19.5522 65.2066 19.2537 65.463 18.8789C65.7195 18.5041 65.9239 18.0945 66.0764 17.6503C66.2289 17.1991 66.3294 16.7584 66.3779 16.328L66.3987 16.0885C66.4403 15.7137 66.4473 15.3146 66.4195 14.8912C66.3918 14.4608 66.3086 14.0582 66.17 13.6834C66.0314 13.3016 65.8165 12.9927 65.5254 12.7567C65.2343 12.5138 64.8461 12.3854 64.3609 12.3715C63.8411 12.3576 63.3906 12.4652 63.0093 12.6943C62.6281 12.9164 62.3093 13.2183 62.0528 13.6001C61.7964 13.9819 61.5919 14.3983 61.4394 14.8495C61.2938 15.3007 61.1933 15.7415 61.1379 16.1718Z" fill="white"/>
<path d="M44.8169 16.4113L44.8481 16.1718C44.9313 15.3944 45.1219 14.6552 45.4199 13.9541C45.718 13.253 46.113 12.6318 46.6052 12.0904C47.1042 11.542 47.6899 11.1152 48.3622 10.8097C49.0415 10.5043 49.797 10.362 50.6288 10.3829C51.4328 10.3967 52.1225 10.5633 52.6978 10.8826C53.28 11.2019 53.7513 11.6288 54.1117 12.1633C54.4791 12.6908 54.7356 13.2947 54.8811 13.9749C55.0267 14.6482 55.0648 15.3528 54.9955 16.0885L54.9747 16.328C54.8846 17.1054 54.687 17.8412 54.3821 18.5353C54.084 19.2294 53.6855 19.8472 53.1864 20.3886C52.6943 20.9231 52.1086 21.343 51.4293 21.6484C50.757 21.9469 50.0084 22.0857 49.1836 22.0649C48.3865 22.051 47.6968 21.8879 47.1146 21.5755C46.5393 21.2563 46.068 20.8328 45.7006 20.3053C45.3402 19.7778 45.0872 19.1808 44.9417 18.5145C44.7961 17.8412 44.7545 17.1401 44.8169 16.4113ZM47.281 16.1718L47.2602 16.4113C47.2255 16.7931 47.222 17.1956 47.2498 17.6191C47.2775 18.0425 47.3607 18.4381 47.4993 18.806C47.6379 19.1739 47.8528 19.4758 48.1439 19.7118C48.435 19.9478 48.8232 20.0728 49.3084 20.0867C49.8213 20.1005 50.2683 19.9964 50.6496 19.7743C51.0308 19.5522 51.3496 19.2537 51.6061 18.8789C51.8625 18.5041 52.067 18.0945 52.2195 17.6503C52.372 17.1991 52.4725 16.7584 52.521 16.328L52.5418 16.0885C52.5834 15.7137 52.5903 15.3146 52.5626 14.8912C52.5349 14.4608 52.4517 14.0582 52.3131 13.6834C52.1744 13.3016 51.9596 12.9927 51.6685 12.7567C51.3773 12.5138 50.9892 12.3854 50.504 12.3715C49.9842 12.3576 49.5336 12.4652 49.1524 12.6943C48.7712 12.9164 48.4523 13.2183 48.1959 13.6001C47.9394 13.9819 47.735 14.3983 47.5825 14.8495C47.4369 15.3007 47.3364 15.7415 47.281 16.1718Z" fill="white"/>
<path d="M42.303 5.86426L39.527 21.8568H37.0837L39.8493 5.86426H42.303Z" fill="white"/>
<path d="M28.581 15.412H24.6406L25.0461 13.0172L27.9364 13.0276C28.3592 13.0276 28.7647 12.9791 29.1529 12.8819C29.5479 12.7778 29.8806 12.5973 30.151 12.3405C30.4282 12.0836 30.605 11.7192 30.6812 11.2472C30.7436 10.8169 30.7089 10.4802 30.5772 10.2373C30.4455 9.9874 30.2341 9.8104 29.943 9.70628C29.6588 9.59522 29.3192 9.53622 28.9241 9.52928L27.0215 9.51887L24.8797 21.8569H21.324L23.944 6.69727L29.0385 6.70768C29.697 6.71462 30.3485 6.7875 30.9931 6.92633C31.6377 7.06515 32.2165 7.29074 32.7294 7.60309C33.2423 7.90851 33.6443 8.32498 33.9354 8.85251C34.2266 9.3731 34.3479 10.0256 34.2993 10.8099C34.2508 11.6637 34.0117 12.3578 33.5819 12.8923C33.1591 13.4198 32.6116 13.812 31.9392 14.0688C31.2669 14.3187 30.5391 14.4541 29.7559 14.4749L28.581 15.412ZM27.375 21.8569H22.5924L24.2975 19.0457L27.4893 19.0561C27.8844 19.0491 28.2553 18.9832 28.6018 18.8583C28.9553 18.7333 29.2499 18.539 29.4856 18.2752C29.7282 18.0045 29.8841 17.6609 29.9534 17.2444C30.0158 16.8904 30.0089 16.5815 29.9326 16.3178C29.8633 16.0471 29.7178 15.8354 29.496 15.6827C29.2811 15.53 28.99 15.4432 28.6226 15.4224L25.4516 15.412L25.8882 13.0172L29.34 13.0276L29.9638 13.9751C30.6639 13.9821 31.2842 14.107 31.8249 14.3499C32.3655 14.5929 32.7814 14.9608 33.0725 15.4536C33.3705 15.9395 33.4953 16.5503 33.4468 17.2861C33.3775 18.4175 33.0517 19.3198 32.4695 19.9931C31.8872 20.6595 31.1456 21.1384 30.2445 21.43C29.3435 21.7215 28.387 21.8638 27.375 21.8569Z" fill="white"/>
</svg>
