<svg width="30" height="30" viewBox="0 0 30 30" fill="none" xmlns="http://www.w3.org/2000/svg">
<path d="M10.1254 6.28571C11.0243 6.28571 11.7505 5.55156 11.7505 4.64286C11.7505 3.73415 11.0243 3 10.1254 3H6.87524C4.1837 3 2 5.20759 2 7.92857V21.0714C2 23.7924 4.1837 26 6.87524 26H10.1254C11.0243 26 11.7505 25.2658 11.7505 24.3571C11.7505 23.4484 11.0243 22.7143 10.1254 22.7143H6.87524C5.97637 22.7143 5.25016 21.9801 5.25016 21.0714V7.92857C5.25016 7.01987 5.97637 6.28571 6.87524 6.28571H10.1254ZM27.5239 15.6603C28.1587 15.0185 28.1587 13.9763 27.5239 13.3346L21.0236 6.76317C20.3888 6.12143 19.3579 6.12143 18.7231 6.76317C18.0883 7.40491 18.0883 8.4471 18.7231 9.08884L22.4506 12.8571H11.7505C10.8516 12.8571 10.1254 13.5913 10.1254 14.5C10.1254 15.4087 10.8516 16.1429 11.7505 16.1429H22.4506L18.7231 19.9112C18.0883 20.5529 18.0883 21.5951 18.7231 22.2368C19.3579 22.8786 20.3888 22.8786 21.0236 22.2368L27.5239 15.6654V15.6603Z" fill="#600007"/>
</svg>
