<svg width="21" height="28" viewBox="0 0 21 28" fill="none" xmlns="http://www.w3.org/2000/svg">
<path d="M17.0297 1.75H17.5C19.4305 1.75 21 3.31953 21 5.25V24.5C21 26.4305 19.4305 28 17.5 28H3.5C1.56953 28 0 26.4305 0 24.5V5.25C0 3.31953 1.56953 1.75 3.5 1.75H3.97031C4.57188 0.705469 5.70391 0 7 0H14C15.2961 0 16.4281 0.705469 17.0297 1.75ZM13.5625 6.125C14.2898 6.125 14.875 5.53984 14.875 4.8125C14.875 4.08516 14.2898 3.5 13.5625 3.5H7.4375C6.71016 3.5 6.125 4.08516 6.125 4.8125C6.125 5.53984 6.71016 6.125 7.4375 6.125H13.5625ZM10.5 13.5625C11.3805 13.5625 12.0969 14.2789 12.0969 15.1594C12.0969 15.6352 11.9273 15.9195 11.7195 16.1273C11.4734 16.368 11.1344 16.5375 10.8008 16.6469C9.98594 16.9203 9.1875 17.7023 9.1875 18.807C9.1875 19.5344 9.77266 20.1195 10.5 20.1195C11.1289 20.1195 11.6594 19.6766 11.7852 19.0805C12.8352 18.6922 14.7219 17.6422 14.7219 15.1539C14.7219 12.8242 12.8297 10.932 10.5 10.932C8.17031 10.932 6.27813 12.8242 6.27813 15.1539C6.27813 15.8813 6.86328 16.4664 7.59062 16.4664C8.31797 16.4664 8.90312 15.8813 8.90312 15.1539C8.90312 14.2734 9.61953 13.557 10.5 13.557V13.5625ZM12.0312 22.75C12.0312 21.9023 11.3477 21.2188 10.5 21.2188C9.65234 21.2188 8.96875 21.9023 8.96875 22.75C8.96875 23.5977 9.65234 24.2812 10.5 24.2812C11.3477 24.2812 12.0312 23.5977 12.0312 22.75Z" fill="#FF3947"/>
</svg>
