<svg width="35" height="35" viewBox="0 0 35 35" fill="none" xmlns="http://www.w3.org/2000/svg">
<path d="M10.5 31.5H28C28.968 31.5 29.75 30.718 29.75 29.75C29.75 28.782 28.968 28 28 28V24.3523C29.0172 23.9914 29.75 23.018 29.75 21.875V6.125C29.75 4.67578 28.5742 3.5 27.125 3.5H10.5C7.60156 3.5 5.25 5.85156 5.25 8.75V26.25C5.25 29.1484 7.60156 31.5 10.5 31.5ZM8.75 26.25C8.75 25.282 9.53203 24.5 10.5 24.5H24.5V28H10.5C9.53203 28 8.75 27.218 8.75 26.25ZM15.75 10.0625C15.75 9.58125 16.1438 9.1875 16.625 9.1875H18.375C18.8562 9.1875 19.25 9.58125 19.25 10.0625V12.25H21.4375C21.9188 12.25 22.3125 12.6438 22.3125 13.125V14.875C22.3125 15.3562 21.9188 15.75 21.4375 15.75H19.25V17.9375C19.25 18.4187 18.8562 18.8125 18.375 18.8125H16.625C16.1438 18.8125 15.75 18.4187 15.75 17.9375V15.75H13.5625C13.0813 15.75 12.6875 15.3562 12.6875 14.875V13.125C12.6875 12.6438 13.0813 12.25 13.5625 12.25H15.75V10.0625Z" fill="#FF3947"/>
</svg>
