<svg width="36" height="36" viewBox="0 0 36 36" fill="none" xmlns="http://www.w3.org/2000/svg">
<path d="M11 10.4656C13.2312 10.4656 15.0385 8.57143 15.0385 6.2328C15.0385 3.89418 13.2312 2 11 2C8.76875 2 6.96154 3.89418 6.96154 6.2328C6.96154 8.57143 8.76875 10.4656 11 10.4656ZM10.0005 12.4409C6.68558 12.4409 4 15.2557 4 18.7302C4 19.3086 4.4476 19.7778 4.99952 19.7778H17.0005C17.5524 19.7778 18 19.3086 18 18.7302C18 15.2557 15.3144 12.4409 11.9995 12.4409H10.0005Z" fill="#FF3443"/>
<path d="M29.8662 21.8423C31.0446 21.8423 32 22.8129 32 24.0101C32 25.2073 31.0446 26.1778 29.8662 26.1778H14.8838C13.7054 26.1778 12.75 25.2073 12.75 24.0101C12.75 22.8129 13.7054 21.8423 14.8838 21.8423H29.8662ZM22.3846 14.4444C23.7322 14.4444 24.8246 15.5542 24.8246 16.9232V31.5213C24.8246 32.8902 23.7322 34 22.3846 34C21.0371 34 19.9446 32.8902 19.9446 31.5213V16.9232C19.9446 15.5542 21.0371 14.4444 22.3846 14.4444Z" fill="#FF3443"/>
</svg>
