<svg width="20" height="20" viewBox="0 0 20 20" fill="none" xmlns="http://www.w3.org/2000/svg">
<path d="M9.5 17C5.35742 17 2 13.6426 2 9.5C2 5.35742 5.35742 2 9.5 2C13.6426 2 17 5.35742 17 9.5C17 13.6426 13.6426 17 9.5 17ZM9.5 11.375C8.98145 11.375 8.5625 11.7939 8.5625 12.3125C8.5625 12.8311 8.98145 13.25 9.5 13.25C10.0186 13.25 10.4375 12.8311 10.4375 12.3125C10.4375 11.7939 10.0186 11.375 9.5 11.375ZM9.5 5.75C8.9668 5.75 8.54199 6.2041 8.58008 6.7373L8.79688 9.78418C8.82324 10.1533 9.13086 10.4375 9.49707 10.4375C9.86621 10.4375 10.1709 10.1533 10.1973 9.78418L10.4141 6.7373C10.4521 6.2041 10.0303 5.75 9.49414 5.75H9.5Z" fill="#FF161A"/>
</svg>
