<svg width="33" height="29" viewBox="0 0 33 29" fill="none" xmlns="http://www.w3.org/2000/svg">
<path d="M15.4969 0.37125L11.7675 5.79375C11.1375 6.71062 10.8 7.79625 10.8 8.90438V9C10.8 11.9812 13.2188 14.4 16.2 14.4C19.1812 14.4 21.6 11.9812 21.6 9V8.90438C21.6 7.79063 21.2625 6.71062 20.6325 5.79375L16.9031 0.37125C16.7456 0.140625 16.4812 0 16.2 0C15.9187 0 15.6544 0.140625 15.4969 0.37125ZM6.14813 19.2094L3.75187 21.6H1.8C0.804375 21.6 0 22.4044 0 23.4V27C0 27.9956 0.804375 28.8 1.8 28.8H19.8281C21.4594 28.8 23.0513 28.2769 24.3675 27.3094L31.4887 22.0613C32.49 21.3244 32.7037 19.9181 31.9669 18.9169C31.23 17.9156 29.8238 17.7019 28.8225 18.4387L22.0837 23.4H15.75C15.0019 23.4 14.4 22.7981 14.4 22.05C14.4 21.3019 15.0019 20.7 15.75 20.7H19.8C20.7956 20.7 21.6 19.8956 21.6 18.9C21.6 17.9044 20.7956 17.1 19.8 17.1H11.2387C9.33187 17.1 7.49813 17.8594 6.14813 19.2094Z" fill="#FF3947"/>
</svg>
