<svg width="81" height="83" viewBox="0 0 81 83" fill="none" xmlns="http://www.w3.org/2000/svg">
<path d="M21.9775 22.5H22.0225C22.6986 22.5 23.3059 22.8064 23.6924 23.3428V23.3438C25.7656 26.2271 30.5034 32.9981 34.7168 40.3652C36.824 44.0498 38.7846 47.856 40.2139 51.3809C41.6562 54.938 42.4999 58.0711 42.5 60.4541C42.5 72.1075 33.283 81.5 22 81.5C10.717 81.5 1.5 72.1075 1.5 60.4541C1.5001 58.0711 2.34383 54.938 3.78613 51.3809C5.2154 47.856 7.17595 44.0498 9.2832 40.3652C13.4966 32.9981 18.2335 26.2261 20.3066 23.3428C20.6932 22.8061 21.3012 22.5 21.9775 22.5ZM10.083 55.1973C7.69636 55.1974 5.83301 57.1604 5.83301 59.5156C5.83326 69.1276 13.4491 76.9844 22.917 76.9844C25.3035 76.9842 27.1668 75.0221 27.167 72.667C27.167 70.3118 25.3036 68.3488 22.917 68.3486C18.2112 68.3486 14.3333 64.4286 14.333 59.5156C14.333 57.1603 12.4698 55.1973 10.083 55.1973Z" stroke="#FF3443" stroke-width="3"/>
<g filter="url(#filter0_d_373_7288)">
<path d="M71.2 62.535L49.18 40.215C52.18 36.03 53.965 30.885 53.965 25.335C53.965 11.37 42.76 1.48246e-05 28.99 1.48246e-05C15.205 -0.0149852 4 11.355 4 25.32C4 39.285 15.205 50.655 28.975 50.655C34.945 50.655 40.42 48.525 44.725 44.97L66.625 67.185L71.2 62.535ZM28.975 44.805C18.385 44.805 9.76 36.06 9.76 25.32C9.76 14.58 18.385 5.83502 28.975 5.83502C39.565 5.83502 48.19 14.58 48.19 25.32C48.19 36.06 39.58 44.805 28.975 44.805Z" fill="#FF3443"/>
</g>
<defs>
<filter id="filter0_d_373_7288" x="3" y="0" width="77.2002" height="78.1846" filterUnits="userSpaceOnUse" color-interpolation-filters="sRGB">
<feFlood flood-opacity="0" result="BackgroundImageFix"/>
<feColorMatrix in="SourceAlpha" type="matrix" values="0 0 0 0 0 0 0 0 0 0 0 0 0 0 0 0 0 0 127 0" result="hardAlpha"/>
<feOffset dx="4" dy="6"/>
<feGaussianBlur stdDeviation="2.5"/>
<feComposite in2="hardAlpha" operator="out"/>
<feColorMatrix type="matrix" values="0 0 0 0 1 0 0 0 0 0.45098 0 0 0 0 0.490196 0 0 0 0.45 0"/>
<feBlend mode="normal" in2="BackgroundImageFix" result="effect1_dropShadow_373_7288"/>
<feBlend mode="normal" in="SourceGraphic" in2="effect1_dropShadow_373_7288" result="shape"/>
</filter>
</defs>
</svg>
