<svg width="20" height="20" viewBox="0 0 20 20" fill="none" xmlns="http://www.w3.org/2000/svg">
<path d="M3 4C2.44687 4 2 4.44687 2 5C2 5.55312 2.44687 6 3 6H5.70937C6.09375 6.88438 6.975 7.5 8 7.5C9.025 7.5 9.90625 6.88438 10.2906 6H17C17.5531 6 18 5.55312 18 5C18 4.44687 17.5531 4 17 4H10.2906C9.90625 3.11563 9.025 2.5 8 2.5C6.975 2.5 6.09375 3.11563 5.70937 4H3ZM3 9C2.44687 9 2 9.44688 2 10C2 10.5531 2.44687 11 3 11H10.7094C11.0938 11.8844 11.975 12.5 13 12.5C14.025 12.5 14.9062 11.8844 15.2906 11H17C17.5531 11 18 10.5531 18 10C18 9.44688 17.5531 9 17 9H15.2906C14.9062 8.11562 14.025 7.5 13 7.5C11.975 7.5 11.0938 8.11562 10.7094 9H3ZM3 14C2.44687 14 2 14.4469 2 15C2 15.5531 2.44687 16 3 16H4.70937C5.09375 16.8844 5.975 17.5 7 17.5C8.025 17.5 8.90625 16.8844 9.29062 16H17C17.5531 16 18 15.5531 18 15C18 14.4469 17.5531 14 17 14H9.29062C8.90625 13.1156 8.025 12.5 7 12.5C5.975 12.5 5.09375 13.1156 4.70937 14H3Z" fill="#600007"/>
</svg>
