<svg width="30" height="30" viewBox="0 0 30 30" fill="none" xmlns="http://www.w3.org/2000/svg">
<path d="M11.3569 3.125C11.4864 2.47206 12.0519 2 12.7081 2H15.2895C15.9457 2 16.5112 2.47206 16.6407 3.125L17.2666 6.21324C17.8753 6.47794 18.4451 6.81765 18.9631 7.21912L21.8899 6.22647C22.5115 6.01471 23.1936 6.27941 23.5217 6.86176L24.8124 9.14706C25.1405 9.72941 25.0239 10.4618 24.5318 10.9074L22.2309 12.9985C22.2698 13.325 22.2871 13.6603 22.2871 14C22.2871 14.3397 22.2655 14.675 22.2309 15.0015L24.5361 17.0971C25.0282 17.5426 25.1405 18.2794 24.8167 18.8574L23.526 21.1426C23.1979 21.7206 22.5158 21.9897 21.8942 21.7779L18.9674 20.7853C18.4451 21.1868 17.8753 21.5221 17.2709 21.7912L16.6493 24.875C16.5155 25.5324 15.95 26 15.2981 26H12.7167C12.0605 26 11.495 25.5279 11.3655 24.875L10.7439 21.7912C10.1352 21.5265 9.56974 21.1868 9.04741 20.7853L6.10766 21.7779C5.48604 21.9897 4.80399 21.725 4.47591 21.1426L3.18518 18.8574C2.85711 18.275 2.97366 17.5426 3.46578 17.0971L5.77095 15.0015C5.7321 14.675 5.71483 14.3397 5.71483 14C5.71483 13.6603 5.73642 13.325 5.77095 12.9985L3.46578 10.9029C2.97366 10.4574 2.86142 9.72059 3.18518 9.14265L4.47591 6.85735C4.80399 6.275 5.48604 6.01029 6.10766 6.22206L9.03446 7.21471C9.55679 6.81324 10.1266 6.47794 10.731 6.20882L11.3569 3.125ZM13.9988 17.5294C15.9068 17.5206 17.4479 15.9368 17.4393 13.9868C17.4306 12.0368 15.8809 10.4618 13.9729 10.4706C12.0649 10.4794 10.5238 12.0632 10.5324 14.0132C10.541 15.9632 12.0908 17.5382 13.9988 17.5294Z" fill="#600007"/>
</svg>
