<svg width="20" height="20" viewBox="0 0 20 20" fill="none" xmlns="http://www.w3.org/2000/svg">
<path d="M13.7143 3C14.3069 3 14.7857 3.44687 14.7857 4V5H15.8571C17.0391 5 18 5.89687 18 7V16C18 17.1031 17.0391 18 15.8571 18H5.14286C3.96094 18 3 17.1031 3 16V7C3 5.89687 3.96094 5 5.14286 5H6.21429V4C6.21429 3.44687 6.69308 3 7.28571 3C7.87835 3 8.35714 3.44687 8.35714 4V5H12.6429V4C12.6429 3.44687 13.1217 3 13.7143 3ZM14.4509 8.05312C14.0926 7.80937 13.5904 7.88438 13.3292 8.21875L9.33147 13.35L7.58705 11.7219C7.27232 11.4281 6.76339 11.4281 6.45201 11.7219C6.14062 12.0156 6.13728 12.4906 6.45201 12.7812L8.86272 15.0312C9.03013 15.1875 9.26116 15.2656 9.49219 15.25C9.72321 15.2344 9.94085 15.1219 10.0781 14.9438L14.6283 9.1C14.8895 8.76563 14.8092 8.29688 14.4509 8.05312Z" fill="white"/>
</svg>
